<svg width="58" height="80" viewBox="0 0 58 80" fill="none" xmlns="http://www.w3.org/2000/svg">
<path d="M5.9281 72.9967L10.2499 74.6154V76.2498C10.2499 78.3185 11.9312 79.9998 13.9999 79.9998H44C46.0687 79.9998 47.75 78.3185 47.75 76.2498V74.6154L52.0718 72.9936C55.4687 71.7217 57.75 68.428 57.75 64.8032V58.4469C57.75 56.8313 57.3906 55.2001 56.7155 53.7313L52.1906 43.9249C50.7437 40.7874 47.8719 38.4531 44.5062 37.678L33.9998 35.2562V32.5625C36.9748 31.0781 39.2029 28.3187 39.9591 25H40.2498C42.3185 25 43.9998 23.3187 43.9998 21.25C43.9998 20.0187 43.3935 18.9312 42.4748 18.25C42.6373 18.0375 42.7498 17.7875 42.7498 17.5V12.6093C42.7498 9.83749 41.9373 7.15309 40.3998 4.84373C38.4842 1.97501 35.0185 0.540608 31.6654 1.18437L29.5623 0.131248C29.3842 0.043752 29.1935 0 28.9998 0H26.7592C19.7216 0 14 5.72184 14 12.7592V16.2498C14 16.9405 14.5593 17.4998 15.25 17.4998H17.75C15.6812 17.4998 14 19.1811 14 21.2498C14 23.3186 15.6812 24.9998 17.75 24.9998H18.0406C18.7968 28.3186 21.025 31.078 23.9999 32.5623V36.2498C23.9999 39.0061 26.2437 41.2498 28.9999 41.2498C31.2281 41.2498 33.0968 39.778 33.7406 37.7623L43.9438 40.1154C46.5625 40.7186 48.7969 42.5342 49.9188 44.9748L54.4438 54.7812C54.9719 55.9218 55.25 57.1906 55.25 58.4468V64.803C55.25 67.3937 53.6219 69.7468 51.1938 70.6562L47.75 71.9468V60.6684L50.9438 58.5402C51.5188 58.159 51.6719 57.3809 51.2907 56.8058C50.9094 56.2308 50.1313 56.0746 49.5563 56.459L47.75 57.6652V46.2492C47.75 44.1805 46.0687 42.4992 44 42.4992H14C11.9313 42.4992 10.25 44.1805 10.25 46.2492V57.6652L8.44377 56.4621C7.86877 56.0777 7.09377 56.234 6.70937 56.809C6.32812 57.384 6.48124 58.159 7.05624 58.5434L10.25 60.6683V71.9467L6.80624 70.6561C4.37808 69.7467 2.75 67.3936 2.75 64.803V58.4467C2.75 57.1905 3.02813 55.9218 3.55624 54.7811L8.0812 44.9747C9.20616 42.5372 11.4406 40.7185 14.0594 40.1154L20.975 38.5185C21.6468 38.3622 22.0656 37.6935 21.9125 37.0185C21.7562 36.3435 21.0812 35.9278 20.4125 36.081L13.4969 37.6778C10.1313 38.4528 7.25936 40.7903 5.81248 43.9247L1.28752 53.7311C0.609392 55.1998 0.25 56.8311 0.25 58.4467V64.803C0.25 68.4279 2.53122 71.7218 5.9281 72.9967ZM40.2497 22.4999V19.9999C40.9403 19.9999 41.4997 20.5593 41.4997 21.2499C41.4997 21.9405 40.9403 22.4999 40.2497 22.4999ZM16.4993 14.9999V12.7592C16.4993 7.10301 21.1024 2.50005 26.7585 2.50005H28.7054L30.9398 3.61877C31.2054 3.75002 31.5117 3.78439 31.8023 3.71252C34.2835 3.09377 36.8991 4.10627 38.3179 6.23124C39.5803 8.12812 40.2491 10.3312 40.2491 12.6094V16.25H37.346L36.4742 14.0688C36.0242 12.9469 35.0523 12.1344 33.8679 11.8906C33.1867 11.75 32.4961 11.8094 31.8679 12.0531C31.2554 11.1937 30.3117 10.6531 29.2555 10.5656C28.1461 10.475 27.0867 10.8874 26.3273 11.7C24.2586 13.9093 21.4523 14.9875 17.7489 15L16.4993 14.9999ZM16.4993 21.2499C16.4993 20.5593 17.0587 19.9999 17.7493 19.9999V22.4999C17.0587 22.4999 16.4993 21.9405 16.4993 21.2499ZM20.2493 22.4999V17.3217C23.4837 16.8874 26.0931 15.6061 28.1524 13.4092C28.3868 13.1592 28.7149 13.0217 29.0493 13.0592C29.2399 13.0749 29.5993 13.1561 29.8493 13.5342L30.4587 14.4467C30.6681 14.7592 31.0024 14.9592 31.3743 14.9967C31.7524 15.0374 32.118 14.903 32.3805 14.6374C32.643 14.3749 33.0024 14.2686 33.3618 14.3436C33.7243 14.4186 34.0118 14.6592 34.1493 15.003L35.3368 17.9717C35.5275 18.4373 35.99 18.7498 36.4993 18.7498H37.7493V22.4998C37.7493 27.3248 33.8243 31.2502 28.9989 31.2502C24.1735 31.2502 20.2485 27.3253 20.2485 22.4998L20.2493 22.4999ZM28.9997 38.7495C27.6215 38.7495 26.4997 37.6277 26.4997 36.2495V33.4589C27.3059 33.6432 28.1403 33.7495 28.9997 33.7495C29.8591 33.7495 30.6935 33.6432 31.4997 33.4589V36.2495C31.4997 37.6277 30.3779 38.7495 28.9997 38.7495ZM13.9997 44.9995H43.9997C44.6903 44.9995 45.2497 45.5589 45.2497 46.2495V71.2495H20.2497C19.5591 71.2495 18.9997 71.8089 18.9997 72.4995C18.9997 73.1901 19.5591 73.7495 20.2497 73.7495H45.2497V76.2495C45.2497 76.9401 44.6903 77.4995 43.9997 77.4995H13.9997C13.3091 77.4995 12.7497 76.9401 12.7497 76.2495V73.7495H15.2497C15.9403 73.7495 16.4997 73.1901 16.4997 72.4995C16.4997 71.8089 15.9403 71.2495 15.2497 71.2495H12.7497V46.2495C12.7497 45.5589 13.3091 44.9995 13.9997 44.9995Z" fill="#232D36"/>
<path d="M34 24.9999C34 24.3093 33.4406 23.7499 32.75 23.7499C32.0594 23.7499 31.5 24.3093 31.5 24.9999C31.5 25.5436 29.075 26.2468 26.5 26.2499C25.8094 26.2499 25.25 26.8093 25.25 27.4999C25.25 28.1905 25.8094 28.7499 26.5 28.7499C27.7531 28.7499 34 28.5686 34 24.9999Z" fill="#232D36"/>
<path d="M29 62.4999C31.7562 62.4999 34 60.2561 34 57.4999C34 56.8093 33.4406 56.2499 32.75 56.2499C32.0594 56.2499 31.5 56.8093 31.5 57.4999C31.5 58.878 30.3782 59.9999 29 59.9999C27.6218 59.9999 26.5 58.878 26.5 57.4999C26.5 56.1217 27.6218 54.9999 29 54.9999C29.6906 54.9999 30.25 54.4405 30.25 53.7499C30.25 53.0593 29.6906 52.4999 29 52.4999C26.2438 52.4999 24 54.7436 24 57.4999C24 60.2561 26.2438 62.4999 29 62.4999Z" fill="#232D36"/>
<path d="M31.4999 9.99988C31.8187 9.99988 32.1406 9.87801 32.3843 9.63426L33.6343 8.38426C34.1219 7.89675 34.1219 7.1061 33.6343 6.61554C33.1468 6.12803 32.3562 6.12803 31.8656 6.61554L30.6156 7.86554C30.1281 8.35304 30.1281 9.1437 30.6156 9.63426C30.8594 9.87801 31.1812 9.99988 31.4999 9.99988Z" fill="#232D36"/>
<path d="M25.25 20.6247C25.25 23.1247 22.75 23.1247 22.75 20.6247C22.75 18.1247 25.25 18.1247 25.25 20.6247Z" fill="#232D36"/>
<path d="M35.25 20.6247C35.25 23.1247 32.75 23.1247 32.75 20.6247C32.75 18.1247 35.25 18.1247 35.25 20.6247Z" fill="#232D36"/>
</svg>
