<svg width="23" height="25" viewBox="0 0 23 25" fill="none" xmlns="http://www.w3.org/2000/svg">
<path fill-rule="evenodd" clip-rule="evenodd" d="M11.8008 0.986572C12.353 0.986572 12.8006 1.43423 12.8006 1.98643V3.05718C16.1924 3.54234 18.7998 6.45935 18.7998 9.98534V11.0888C18.7998 12.7261 19.3738 14.3116 20.422 15.5695L20.8341 16.0639C22.4622 18.0177 21.0729 20.9838 18.5297 20.9838H15.8002C15.8002 23.1927 14.0096 24.9833 11.8008 24.9833C9.59192 24.9833 7.80131 23.1927 7.80131 20.9838H5.07176C2.5286 20.9838 1.13932 18.0177 2.76741 16.064L3.17949 15.5695C4.22768 14.3116 4.80172 12.7261 4.80172 11.0888V9.98534C4.80172 6.45935 7.40907 3.54234 10.8009 3.05718V1.98643C10.8009 1.43423 11.2485 0.986572 11.8008 0.986572ZM9.80103 20.9838C9.80103 22.0882 10.6963 22.9835 11.8008 22.9835C12.9052 22.9835 13.8005 22.0882 13.8005 20.9838H9.80103ZM5.07176 18.9841C4.22404 18.9841 3.76095 17.9954 4.30365 17.3441L4.71572 16.8497C6.0634 15.2324 6.80144 13.1939 6.80144 11.0888V9.98534C6.80144 7.22429 9.03971 4.98602 11.8008 4.98602C14.5618 4.98602 16.8001 7.22429 16.8001 9.98534V11.0888C16.8001 13.1939 17.5381 15.2324 18.8858 16.8497L19.2979 17.3441C19.8406 17.9954 19.3775 18.9841 18.5297 18.9841H5.07176ZM4.40162 3.1867C4.84315 3.51835 4.93222 4.14513 4.60058 4.58666C3.64003 5.86546 3.013 7.40696 2.84647 9.08426C2.79191 9.63377 2.30222 10.035 1.75271 9.98044C1.20321 9.92589 0.80197 9.43619 0.856528 8.88669C1.06028 6.83453 1.82816 4.94799 3.00167 3.38567C3.33331 2.94414 3.96009 2.85506 4.40162 3.1867ZM19.1999 3.1867C19.6414 2.85506 20.2682 2.94414 20.5998 3.38566C21.7734 4.94799 22.5412 6.83453 22.745 8.88669C22.7995 9.43619 22.3983 9.92589 21.8488 9.98044C21.2993 10.035 20.8096 9.63377 20.755 9.08426C20.5885 7.40696 19.9615 5.86546 19.0009 4.58666C18.6693 4.14513 18.7584 3.51835 19.1999 3.1867Z" fill="#525252"/>
</svg>
