<svg width="80" height="64" viewBox="0 0 80 64" fill="none" xmlns="http://www.w3.org/2000/svg">
<path d="M78.9123 55.0297H0.987496C0.725 55.0297 0.475 54.9234 0.287496 54.739C0.10312 54.5547 0 54.3015 0 54.039V49.0953C0 48.8328 0.103128 48.5828 0.287496 48.3953C0.475 48.2109 0.725 48.1078 0.987496 48.1078H78.9123C79.1748 48.1078 79.4279 48.2109 79.6123 48.3953C79.7967 48.5828 79.9029 48.8328 79.9029 49.0953V54.039C79.9029 54.3015 79.7967 54.5547 79.6123 54.739C79.4279 54.9234 79.1748 55.0297 78.9123 55.0297ZM1.9779 53.0515H77.9219V50.0828H1.9779V53.0515Z" fill="#232D36"/>
<path d="M71.3014 41.1392H35.5078C33.5922 41.1361 32.0391 39.5861 32.0391 37.6705V13.3361C32.0391 11.4205 33.5922 9.87052 35.5078 9.8674H71.3014C73.217 9.87053 74.7701 11.4205 74.7701 13.3361V37.6705C74.7701 39.5861 73.217 41.1361 71.3014 41.1392ZM35.5078 11.8424C34.6828 11.8456 34.014 12.5112 34.014 13.3362V37.6706C34.014 38.4956 34.6828 39.1612 35.5078 39.1644H71.3014C72.1263 39.1612 72.7951 38.4956 72.7951 37.6706V13.3362C72.7951 12.5112 72.1264 11.8456 71.3014 11.8424H35.5078Z" fill="#232D36"/>
<path d="M59.5659 46.4329H47.3187C47.0563 46.4329 46.8031 46.3297 46.6187 46.1422C46.4312 45.9579 46.3281 45.7047 46.3281 45.4422V40.1453C46.3281 39.8829 46.4313 39.6297 46.6187 39.4453C46.8031 39.2578 47.0563 39.1547 47.3187 39.1547H59.5659C59.8284 39.1547 60.0816 39.2579 60.2659 39.4422C60.4535 39.6297 60.5597 39.8829 60.5566 40.1454V45.436C60.5597 45.6985 60.4566 45.9548 60.2691 46.1422C60.0847 46.3298 59.8285 46.4329 59.5659 46.4329ZM48.3067 44.4547H58.5787V41.1391H48.3067V44.4547Z" fill="#232D36"/>
<path d="M65.0997 49.62H41.6125C41.35 49.62 41.1 49.5169 40.9125 49.3294C40.7281 49.145 40.625 48.8919 40.625 48.6294C40.6312 46.3294 42.4937 44.4701 44.7937 44.4607H61.9121C64.2121 44.4701 66.0746 46.3294 66.0808 48.6294C66.084 49.1732 65.6435 49.6169 65.0997 49.62ZM42.8373 47.6419H63.8781C63.5031 46.9013 62.7437 46.4325 61.9125 46.4325H44.7997C43.9715 46.4325 43.2123 46.9013 42.8373 47.6419Z" fill="#232D36"/>
<path d="M24.2654 50.0833H6.20937C5.94688 50.0864 5.69375 49.9801 5.50937 49.7958C5.32187 49.6082 5.21875 49.3582 5.21875 49.0958V48.8582C5.225 45.5614 7.89691 42.8864 11.1938 42.8832H19.281C22.5779 42.8863 25.2497 45.5614 25.256 48.8582V49.0958C25.256 49.3582 25.1498 49.6082 24.9654 49.7958C24.781 49.9801 24.5279 50.0864 24.2654 50.0833ZM7.27177 48.1082H23.203C22.8405 46.2238 21.1936 44.8645 19.2748 44.8582H11.1932C9.27449 44.8645 7.62761 46.2238 7.26505 48.1082H7.27177Z" fill="#232D36"/>
<path d="M13.8449 43.8953C13.4042 43.8953 13.0167 43.6046 12.8949 43.1828L5.25423 16.8236C5.15736 16.4892 5.24173 16.1267 5.47923 15.8704L16.5728 3.99203C16.8135 3.73578 17.1728 3.62641 17.5197 3.70766C17.8635 3.78578 18.1385 4.04203 18.2385 4.38266C18.3416 4.72016 18.2572 5.08578 18.0166 5.34202L7.30699 16.8108L14.7914 42.6236C14.9414 43.1486 14.6414 43.6955 14.1164 43.8486C14.0289 43.8767 13.9355 43.8921 13.8449 43.8953Z" fill="#232D36"/>
<path d="M15.9734 13.5889C15.5172 13.592 15.1203 13.2826 15.011 12.8389C13.6797 7.47637 16.5297 1.88845 21.3641 0.382853C23.5828 -0.31402 25.9954 -0.0515236 28.0141 1.10472C30.3078 2.39536 32.011 4.71096 32.6922 7.45784C32.8204 7.96409 32.5298 8.48281 32.0298 8.63912L16.2737 13.5454C16.1769 13.5766 16.0734 13.592 15.9734 13.5889ZM23.8453 1.98885C23.2015 1.98885 22.5609 2.08572 21.9484 2.27948C18.3984 3.3826 16.2109 7.31076 16.7328 11.3355L30.492 7.04796C29.8295 5.22612 28.6014 3.7198 27.0295 2.83548C26.0608 2.28235 24.9641 1.99197 23.8453 1.98885Z" fill="#232D36"/>
<path d="M10.918 63.1201H4.96797C4.70548 63.1232 4.45548 63.0169 4.26797 62.8326C4.0836 62.6451 3.98047 62.3951 3.98047 62.1326V54.039C3.98047 53.7765 4.0836 53.5265 4.26797 53.339C4.45548 53.1546 4.70548 53.0483 4.96797 53.0515H10.918C11.1805 53.0483 11.4336 53.1546 11.618 53.339C11.8023 53.5265 11.9086 53.7765 11.9086 54.039V62.1326C11.9086 62.3951 11.8023 62.6451 11.618 62.8326C11.4336 63.0169 11.1805 63.1232 10.918 63.1201ZM5.95861 61.145H9.93045V55.0294H5.95861V61.145Z" fill="#232D36"/>
<path d="M75.5578 63.1201H69.6078C69.3453 63.1232 69.0922 63.0169 68.9078 62.8326C68.7234 62.6451 68.6172 62.3951 68.6172 62.1326V54.039C68.6172 53.7765 68.7234 53.5265 68.9078 53.339C69.0922 53.1546 69.3453 53.0483 69.6078 53.0515H75.5578C75.8203 53.0483 76.0703 53.1546 76.2578 53.339C76.4422 53.5265 76.5453 53.7765 76.5453 54.039V62.1326C76.5453 62.3951 76.4422 62.6451 76.2578 62.8326C76.0703 63.0169 75.8203 63.1232 75.5578 63.1201ZM70.5953 61.145H74.5704V55.0294H70.5953V61.145Z" fill="#232D36"/>
</svg>
