<svg width="33" height="30" viewBox="0 0 33 30" fill="none" xmlns="http://www.w3.org/2000/svg">
<g clip-path="url(#clip0_243_27707)">
<path d="M10.2466 8.63794H11.8165C12.3364 8.63794 12.7584 8.24419 12.7584 7.75903C12.7584 7.27387 12.3364 6.88012 11.8165 6.88012H11.1885V6.29419C11.1885 5.80903 10.7665 5.41528 10.2466 5.41528C9.72667 5.41528 9.30469 5.80903 9.30469 6.29419V7.75903C9.30469 8.24419 9.72667 8.63794 10.2466 8.63794Z" fill="#525252"/>
<path d="M30.5822 16.371H29.0425V14.271C29.0475 13.6264 28.7813 13.0194 28.2927 12.5635C27.8067 12.1089 27.1612 11.8592 26.478 11.8592H26.4642H20.4912V7.58063C20.4912 7.09547 20.0692 6.70172 19.5493 6.70172H16.343C15.8092 4.01462 13.2786 1.97192 10.2456 1.97192C7.21263 1.97192 4.68192 4.01333 4.14821 6.70172H0.94192C0.421978 6.70172 0 7.09547 0 7.58063V25.0979C0 25.5831 0.421978 25.9768 0.94192 25.9768H5.2797C5.68033 27.1639 6.87215 28.0276 8.27499 28.0276C9.67782 28.0276 10.8696 27.1639 11.2703 25.9768H18.7527C19.1533 27.1639 20.3452 28.0276 21.748 28.0276C23.1508 28.0276 24.3427 27.1639 24.7433 25.9768H31.2098C31.7297 25.9768 32.1517 25.5831 32.1517 25.0979V17.8358C32.1517 17.0284 31.4471 16.371 30.5818 16.371L30.5822 16.371ZM26.4705 13.6171H26.4742C26.6576 13.6171 26.8296 13.6839 26.959 13.8046C27.0896 13.9264 27.1599 14.0893 27.1587 14.2616V16.3709H24.4774V13.617L26.4705 13.6171ZM10.2469 3.73115C12.628 3.73115 14.5647 5.53817 14.5647 7.76015C14.5647 9.98213 12.6281 11.7892 10.2469 11.7892C7.8656 11.7892 5.92903 9.98213 5.92903 7.76015C5.92903 5.53817 7.8656 3.73115 10.2469 3.73115ZM1.88512 8.46095H4.09046C4.46219 11.3227 7.08074 13.5469 10.2467 13.5469C13.4128 13.5469 16.0312 11.3226 16.4029 8.46095H18.6082L18.6057 24.2203H11.2715C10.8709 23.0332 9.67906 22.1695 8.27623 22.1695C6.87339 22.1695 5.68156 23.0332 5.28093 24.2203H1.88518L1.88512 8.46095ZM8.27636 26.2711C7.58438 26.2711 7.02049 25.7449 7.02049 25.0992C7.02049 24.4535 7.58438 23.9273 8.27636 23.9273C8.96834 23.9273 9.53223 24.4535 9.53223 25.0992C9.53223 25.7449 8.96834 26.2711 8.27636 26.2711ZM21.7482 26.2711C21.0562 26.2711 20.4923 25.7449 20.4923 25.0992C20.4923 24.4535 21.0562 23.9273 21.7482 23.9273C22.4401 23.9273 23.004 24.4535 23.004 25.0992C23.004 25.7449 22.4401 26.2711 21.7482 26.2711ZM24.7434 24.2203C24.3428 23.0332 23.151 22.1695 21.7482 22.1695C21.3023 22.1695 20.8766 22.2574 20.4923 22.4144V13.6172H22.5934V17.2499C22.5934 17.7351 23.0154 18.1288 23.5353 18.1288H30.268V19.8949H29.4127C28.8928 19.8949 28.4708 20.2886 28.4708 20.7738C28.4708 21.2589 28.8928 21.6527 29.4127 21.6527H30.268V24.2191H24.7432L24.7434 24.2203Z" fill="#525252"/>
</g>
<defs>
<clipPath id="clip0_243_27707">
<rect width="32.1507" height="30" fill="white"/>
</clipPath>
</defs>
</svg>
