<svg width="26" height="22" viewBox="0 0 26 22" fill="none" xmlns="http://www.w3.org/2000/svg">
<path fill-rule="evenodd" clip-rule="evenodd" d="M0 1.08333C0 0.48503 0.485025 0 1.08333 0H4.86568C6.31674 0 7.592 0.961924 7.99063 2.35716L8.55526 4.33333H22.6833C24.7977 4.33333 26.3491 6.32035 25.8363 8.37158L24.2113 14.8716C23.8496 16.3184 22.5497 17.3333 21.0583 17.3333H12.4677C11.0166 17.3333 9.74133 16.3714 9.3427 14.9762L5.90733 2.95239C5.77445 2.48731 5.34937 2.16667 4.86568 2.16667H1.08333C0.485025 2.16667 0 1.68164 0 1.08333ZM9.17431 6.5L11.426 14.3809C11.5588 14.846 11.9839 15.1667 12.4677 15.1667H21.0583C21.5554 15.1667 21.9887 14.8283 22.1093 14.346L23.7343 7.84608C23.9053 7.16234 23.3881 6.5 22.6833 6.5H9.17431ZM10.8333 20.5833C10.8333 19.985 11.3183 19.5 11.9167 19.5H13C13.5983 19.5 14.0833 19.985 14.0833 20.5833C14.0833 21.1817 13.5983 21.6667 13 21.6667H11.9167C11.3183 21.6667 10.8333 21.1817 10.8333 20.5833ZM19.5 20.5833C19.5 19.985 19.985 19.5 20.5833 19.5H21.6667C22.265 19.5 22.75 19.985 22.75 20.5833C22.75 21.1817 22.265 21.6667 21.6667 21.6667H20.5833C19.985 21.6667 19.5 21.1817 19.5 20.5833Z" fill="#767777"/>
</svg>
