<svg width="40" height="40" viewBox="0 0 40 40" fill="none" xmlns="http://www.w3.org/2000/svg">
<path d="M40 20C40 8.96033 31.0534 0 20 0C8.96033 0 0 8.96033 0 20C0 29.9863 7.31874 38.2627 16.881 39.7538V25.7866H11.7921V20H16.8673V15.5951C16.8673 10.5882 19.8495 7.81122 24.4186 7.81122C26.6074 7.81122 28.8919 8.20793 28.8919 8.20793V13.1327H26.3748C23.8851 13.1327 23.119 14.6785 23.119 16.2517V20H28.673L27.7839 25.7866H23.119V39.7674C32.6949 38.2627 40 29.9863 40 20Z" fill="black"/>
<path d="M27.7848 25.7867L28.674 20.0001H23.1199V16.2518C23.1199 14.6649 23.8997 13.1328 26.3757 13.1328H28.8928V8.208C28.8928 8.208 26.6083 7.81128 24.4195 7.81128C19.8504 7.81128 16.8682 10.5746 16.8682 15.5951V20.0001H11.793V25.7867H16.8682V39.7675C17.8805 39.9317 18.9339 40.0137 19.9872 40.0137C21.0543 40.0137 22.0939 39.9317 23.1062 39.7675V25.7867H27.7848Z" fill="white"/>
</svg>
