<svg width="30" height="30" viewBox="0 0 30 30" fill="none" xmlns="http://www.w3.org/2000/svg">
<g filter="url(#filter0_i_1_1459)">
<rect y="0.25" width="29.5" height="29.5" rx="14.75" fill="white"/>
<g filter="url(#filter1_i_1_1459)">
<path d="M18.3879 14.0411L12.1007 10.8207C11.7627 10.6486 11.3693 10.6609 11.0436 10.8575C10.7179 11.0542 10.5273 11.3984 10.5273 11.7794V18.2264C10.5273 18.6074 10.7179 18.9516 11.0436 19.1483C11.2157 19.2527 11.4123 19.3081 11.6029 19.3081C11.7688 19.3081 11.9409 19.2712 12.0945 19.1913L18.3817 15.9709C18.7443 15.7865 18.9656 15.4177 18.9656 15.0121C18.9656 14.6065 18.7505 14.2254 18.3879 14.0411Z" fill="url(#paint0_linear_1_1459)"/>
</g>
</g>
<defs>
<filter id="filter0_i_1_1459" x="0" y="0.25" width="29.5" height="29.5" filterUnits="userSpaceOnUse" color-interpolation-filters="sRGB">
<feFlood flood-opacity="0" result="BackgroundImageFix"/>
<feBlend mode="normal" in="SourceGraphic" in2="BackgroundImageFix" result="shape"/>
<feColorMatrix in="SourceAlpha" type="matrix" values="0 0 0 0 0 0 0 0 0 0 0 0 0 0 0 0 0 0 127 0" result="hardAlpha"/>
<feOffset dy="0.614583"/>
<feComposite in2="hardAlpha" operator="arithmetic" k2="-1" k3="1"/>
<feColorMatrix type="matrix" values="0 0 0 0 1 0 0 0 0 1 0 0 0 0 1 0 0 0 0.1 0"/>
<feBlend mode="normal" in2="shape" result="effect1_innerShadow_1_1459"/>
</filter>
<filter id="filter1_i_1_1459" x="10.5273" y="10.7002" width="8.4375" height="8.60791" filterUnits="userSpaceOnUse" color-interpolation-filters="sRGB">
<feFlood flood-opacity="0" result="BackgroundImageFix"/>
<feBlend mode="normal" in="SourceGraphic" in2="BackgroundImageFix" result="shape"/>
<feColorMatrix in="SourceAlpha" type="matrix" values="0 0 0 0 0 0 0 0 0 0 0 0 0 0 0 0 0 0 127 0" result="hardAlpha"/>
<feOffset dy="0.614583"/>
<feComposite in2="hardAlpha" operator="arithmetic" k2="-1" k3="1"/>
<feColorMatrix type="matrix" values="0 0 0 0 1 0 0 0 0 1 0 0 0 0 1 0 0 0 0.1 0"/>
<feBlend mode="normal" in2="shape" result="effect1_innerShadow_1_1459"/>
</filter>
<linearGradient id="paint0_linear_1_1459" x1="14.7465" y1="10.7002" x2="14.7465" y2="19.3081" gradientUnits="userSpaceOnUse">
<stop stop-color="#E20A18"/>
<stop offset="1" stop-color="#E3000F"/>
</linearGradient>
</defs>
</svg>
