<svg width="24" height="24" viewBox="0 0 24 24" fill="none" xmlns="http://www.w3.org/2000/svg">
<path d="M12 20.3961C17.5229 20.3961 22 16.0541 22 10.6981C22 5.34197 17.5229 1 12 1C6.47718 1 2.00003 5.34197 2.00003 10.6981C2.00003 12.1639 2.33535 13.5537 2.93565 14.7994L2.22977 19.0217C2.11694 19.6966 2.70011 20.283 3.37565 20.1738L7.72984 19.47C9.02483 20.0639 10.4724 20.3961 12 20.3961Z" stroke="#736F6F" stroke-width="1.5" stroke-linecap="square" stroke-linejoin="round"/>
<path d="M14.8964 14.5773H15.1111C15.602 14.5773 16 14.1793 16 13.6884V13.298C16 12.7701 15.6756 12.2963 15.1834 12.1054L14.682 11.9109C14.1678 11.7114 13.5861 11.932 13.3333 12.4222C13.3333 12.4222 12.2222 12.2067 11.3333 11.3446C10.4444 10.4826 10.2222 9.405 10.2222 9.405C10.7216 9.16286 10.946 8.57376 10.7344 8.06072L10.5619 7.6425C10.3564 7.14406 9.87043 6.81885 9.33126 6.81885H8.86205C8.38595 6.81885 8 7.2048 8 7.6809C8 11.4897 11.0876 14.5773 14.8964 14.5773Z" fill="#736F6F"/>
</svg>
