<svg width="20" height="18" viewBox="0 0 20 18" fill="none" xmlns="http://www.w3.org/2000/svg">
<path d="M13.286 1C11.1821 1 9.47661 2.73679 9.47661 4.87922C9.47661 5.20297 9.51555 5.51745 9.58893 5.81807C7.3 5.81807 3.7 5.31025 1 1.86205C1 10.4825 4.6 12.925 6.4 13.0687C5.05 14.3618 2.9465 15.3189 1 15.4989C1.83744 16.2362 4.46043 16.4848 5.66725 16.5169C11.9081 16.5169 16.9805 11.4226 17.0934 5.09481C18.2903 4.33993 18.8588 2.29349 19 1.86205C18.4169 2.45587 17.2 2.7241 16.2303 2.41767C15.5317 1.55208 14.4721 1 13.286 1Z" stroke="#736F6F" stroke-width="1.5" stroke-linejoin="round"/>
</svg>
