<svg xmlns="http://www.w3.org/2000/svg" width="24" height="25" viewBox="0 0 24 25">
    <g fill="none" fill-rule="evenodd">
        <g fill-rule="nonzero">
            <g>
                <path fill="#202124" d="M11.802 23.386c-.684.005-1.327-.328-1.716-.89-.325-.464-.856-.739-1.422-.737-.254-.002-.506.053-.736.162-.278.126-.58.19-.884.191-1.091.008-2.004-.827-2.092-1.915-.075-.833-.736-1.494-1.57-1.569-.673-.062-1.276-.446-1.618-1.03-.342-.585-.38-1.298-.105-1.916.356-.761.114-1.669-.574-2.15-.558-.394-.89-1.034-.89-1.717s.332-1.323.89-1.716c.688-.483.93-1.39.574-2.151-.272-.619-.232-1.33.11-1.913.341-.584.941-.968 1.614-1.033.857-.076 1.528-.77 1.576-1.628.096-1.082 1.006-1.909 2.092-1.9.305.002.606.067.884.19.23.11.482.165.737.163.565.001 1.096-.274 1.421-.737C10.486.532 11.127.2 11.81.2c.683 0 1.323.332 1.717.89.325.463.855.738 1.421.737.255.002.506-.053.737-.162.273-.124.569-.19.869-.192 1.09-.007 2.003.828 2.092 1.915.075.834.735 1.494 1.569 1.57.674.062 1.277.445 1.618 1.03.342.584.381 1.297.105 1.916-.356.761-.114 1.668.575 2.15.558.394.89 1.034.89 1.717s-.332 1.323-.89 1.716c-.689.482-.93 1.39-.575 2.15.276.619.237 1.332-.105 1.917-.341.584-.944.968-1.618 1.03-.834.075-1.494.735-1.57 1.569-.073 1.099-.99 1.95-2.091 1.944-.305 0-.606-.065-.884-.191-.23-.109-.482-.164-.737-.162-.565-.002-1.096.273-1.421.736-.385.566-1.025.906-1.709.906z" transform="translate(-863 -1014) translate(863 1014.6)"/>
                <path fill="#000" d="M11.802.369c.626-.003 1.212.303 1.569.817.36.51.945.812 1.569.81.277 0 .55-.06.803-.176.563-.249 1.212-.212 1.744.098s.883.857.944 1.47c.073.945.824 1.695 1.768 1.768.623.055 1.18.41 1.492.95.313.542.341 1.202.077 1.768-.393.84-.126 1.84.633 2.372.512.358.817.944.817 1.569s-.305 1.21-.817 1.569c-.76.531-1.026 1.532-.633 2.372.24.56.198 1.201-.111 1.726-.31.525-.852.872-1.458.933-.944.073-1.695.823-1.768 1.767-.088.989-.916 1.746-1.908 1.746-.28.002-.556-.058-.81-.177-.84-.387-1.836-.12-2.372.634-.358.512-.944.817-1.568.817-.625 0-1.211-.305-1.57-.817-.535-.754-1.531-1.02-2.371-.634-.56.237-1.2.194-1.724-.115-.524-.31-.871-.849-.935-1.454-.074-.944-.824-1.694-1.768-1.767-.623-.055-1.18-.41-1.492-.95-.313-.542-.341-1.202-.077-1.768.393-.84.126-1.84-.633-2.372-.512-.359-.817-.944-.817-1.57 0-.624.305-1.21.817-1.568.759-.532 1.026-1.532.633-2.372-.24-.56-.198-1.201.111-1.726.31-.526.851-.872 1.458-.933.944-.073 1.694-.823 1.768-1.768.057-.62.413-1.175.953-1.487.54-.312 1.198-.342 1.765-.081.252.115.525.176.803.176.623.002 1.209-.3 1.569-.81.35-.506.924-.81 1.539-.817zm0-.369c-.746-.004-1.446.36-1.87.973-.29.412-.764.657-1.268.655-.225-.003-.446-.055-.648-.155-.301-.143-.631-.216-.965-.213-1.19-.008-2.183.905-2.276 2.092-.065.748-.658 1.341-1.407 1.406-.744.063-1.41.485-1.784 1.13-.375.647-.41 1.435-.094 2.111.314.68.097 1.486-.516 1.916-.61.427-.974 1.125-.974 1.87 0 .746.364 1.444.974 1.871.613.43.83 1.236.516 1.915-.315.675-.282 1.46.09 2.105.37.646 1.032 1.07 1.773 1.136.749.065 1.342.659 1.407 1.407.1 1.18 1.092 2.085 2.276 2.077.338.01.673-.058.98-.199.203-.094.424-.141.648-.14.504-.002.978.243 1.267.656.427.61 1.126.974 1.871.974.745 0 1.444-.363 1.87-.974.29-.413.764-.658 1.268-.656.224-.001.445.046.648.14.301.144.631.217.965.214 1.184.008 2.176-.897 2.276-2.077.062-.747.653-1.341 1.4-1.407.749-.058 1.421-.482 1.798-1.132.377-.65.41-1.445.087-2.124-.314-.679-.097-1.485.516-1.915.61-.427.974-1.125.974-1.87 0-.746-.364-1.444-.974-1.871-.613-.43-.83-1.237-.516-1.916.315-.675.281-1.462-.091-2.107-.373-.646-1.037-1.069-1.78-1.134-.747-.065-1.338-.66-1.4-1.406-.1-1.18-1.09-2.086-2.275-2.077-.338-.01-.673.058-.98.198-.203.094-.424.142-.648.14-.504.002-.978-.242-1.267-.655C13.244.35 12.545-.007 11.802 0z" transform="translate(-863 -1014) translate(863 1014.6)"/>
                <path fill="#F8FBFF" d="M11.802 20.735c-4.943 0-8.95-4.007-8.95-8.95 0-4.942 4.007-8.949 8.95-8.949s8.95 4.007 8.95 8.95c-.005 4.94-4.01 8.945-8.95 8.949z" transform="translate(-863 -1014) translate(863 1014.6)"/>
                <path fill="#000" d="M11.802 3.02c4.84 0 8.765 3.925 8.765 8.765 0 4.841-3.924 8.766-8.765 8.766-4.84 0-8.765-3.925-8.765-8.766 0-4.84 3.924-8.765 8.765-8.765zm0-.368c-5.044 0-9.134 4.09-9.134 9.133 0 5.045 4.09 9.134 9.134 9.134 5.044 0 9.133-4.09 9.133-9.134-.004-5.042-4.09-9.129-9.133-9.133z" transform="translate(-863 -1014) translate(863 1014.6)"/>
                <path fill="#E4EAF7" d="M11.802 3.02c-.41 0-.818.03-1.223.089 4.337.594 7.57 4.299 7.57 8.676 0 4.378-3.233 8.083-7.57 8.677.405.06.814.089 1.223.089 4.84 0 8.765-3.925 8.765-8.766 0-4.84-3.924-8.765-8.765-8.765z" transform="translate(-863 -1014) translate(863 1014.6)"/>
                <path fill="#202124" d="M9.113 18.061c-.38.004-.747-.145-1.017-.414-.27-.268-.42-.634-.419-1.015v-8.95c-.002-.38.15-.746.42-1.015.27-.268.636-.417 1.016-.413h3.426c2.747 0 4.522 1.613 4.522 4.102 0 2.49-1.87 4.206-4.766 4.206h-1.753v2.07c.004.38-.145.746-.414 1.015-.269.269-.634.418-1.015.414zm3.227-6.084c1.082 0 1.79-.604 1.79-1.54 0-1.362-1.157-1.561-1.842-1.561h-1.746v3.1h1.798z" transform="translate(-863 -1014) translate(863 1014.6)"/>
                <path fill="#000" d="M12.539 6.438c2.703 0 4.338 1.606 4.338 3.918 0 2.623-2.04 3.985-4.582 3.985H10.33v2.254c-.05.653-.594 1.156-1.249 1.156-.654 0-1.198-.503-1.248-1.156V7.683c-.002-.332.13-.651.365-.885.235-.234.555-.364.887-.36h3.455zm-2.21 5.723h1.981c.496.06.995-.092 1.372-.421.376-.33.595-.803.602-1.303 0-1.12-.78-1.716-2.025-1.716h-1.93v3.47-.03zm2.21-6.091H9.15c-.43-.006-.845.161-1.15.465-.304.304-.474.717-.47 1.148v8.95c.057.85.764 1.51 1.617 1.51.852 0 1.559-.66 1.616-1.51v-1.901h1.532c3.006 0 4.95-1.71 4.95-4.353 0-2.645-1.93-4.31-4.706-4.31zm-1.812 2.99h1.561c.737 0 1.657.228 1.657 1.348 0 .854-.633 1.385-1.605 1.385h-1.613V9.06z" transform="translate(-863 -1014) translate(863 1014.6)"/>
            </g>
        </g>
    </g>
</svg>
