<svg width="40" height="40" viewBox="0 0 40 40" fill="none" xmlns="http://www.w3.org/2000/svg">
<path d="M20 40C31.0457 40 40 31.0457 40 20C40 8.95431 31.0457 0 20 0C8.95431 0 0 8.95431 0 20C0 31.0457 8.95431 40 20 40Z" fill="black"/>
<path d="M26.2117 12.4351C25.4593 12.4351 24.8438 13.0507 24.8438 13.8167C24.8438 14.5828 25.4593 15.1984 26.2117 15.1984C26.9778 15.1984 27.5934 14.5828 27.5934 13.8167C27.5797 13.0507 26.9778 12.4351 26.2117 12.4351Z" fill="white"/>
<path d="M20.0971 14.1997C16.9097 14.1997 14.3242 16.7852 14.3242 19.9726C14.3242 23.16 16.9097 25.7455 20.0971 25.7455C23.2845 25.7455 25.87 23.16 25.87 19.9726C25.87 16.7852 23.2845 14.1997 20.0971 14.1997ZM20.0971 23.6799C18.0588 23.6799 16.4036 22.0246 16.4036 19.9863C16.4036 17.948 18.0588 16.2927 20.0971 16.2927C22.1354 16.2927 23.7907 17.948 23.7907 19.9863C23.7907 22.0246 22.1354 23.6799 20.0971 23.6799Z" fill="white"/>
<path d="M24.6795 31.6964H15.3225C11.4374 31.6964 8.27734 28.5363 8.27734 24.6512V15.2942C8.27734 11.4091 11.4374 8.24902 15.3225 8.24902H24.6795C28.5646 8.24902 31.7247 11.4091 31.7247 15.2942V24.6512C31.7247 28.5363 28.5646 31.6964 24.6795 31.6964ZM15.3225 10.4515C12.6549 10.4515 10.4798 12.6266 10.4798 15.2942V24.6512C10.4798 27.3188 12.6549 29.4939 15.3225 29.4939H24.6795C27.3471 29.4939 29.5222 27.3188 29.5222 24.6512V15.2942C29.5222 12.6266 27.3471 10.4515 24.6795 10.4515H15.3225Z" fill="white"/>
</svg>
