<svg width="56" height="46" viewBox="0 0 56 46" fill="none" xmlns="http://www.w3.org/2000/svg">
<path d="M8.73204 4.91782C8.73204 6.43894 6.44922 6.43894 6.44922 4.91782C6.44922 3.3967 8.73204 3.3967 8.73204 4.91782Z" fill="#232D36"/>
<path d="M13.1594 4.91782C13.1594 6.43894 10.8789 6.43894 10.8789 4.91782C10.8789 3.3967 13.1594 3.3967 13.1594 4.91782Z" fill="#232D36"/>
<path d="M17.5852 4.91782C17.5852 6.43894 15.3047 6.43894 15.3047 4.91782C15.3047 3.3967 17.5852 3.3967 17.5852 4.91782Z" fill="#232D36"/>
<path d="M14.0938 20.3354H20.2204C20.7383 20.3354 21.1579 19.9159 21.1579 19.3979V16.5432C21.1579 16.0253 20.7383 15.6057 20.2204 15.6057L14.0938 15.6034C13.5758 15.6034 13.1562 16.0229 13.1562 16.5409V19.3956C13.1562 19.9135 13.5758 20.3354 14.0938 20.3354ZM15.0313 17.4784H19.2828V18.4581L15.0313 18.4604V17.4784Z" fill="#232D36"/>
<path d="M54.115 35.783V4.06762C54.115 1.86916 52.329 0.0855957 50.1283 0.0855957L5.87105 0.083252C3.67259 0.083252 1.88435 1.86921 1.88435 4.06527V35.7831C0.815633 36.2589 0.0703125 37.3276 0.0703125 38.5698V39.6432C0.0703125 43.1003 2.88281 45.9174 6.33971 45.9174H49.6591C53.1208 45.9174 55.9333 43.1003 55.9333 39.6432V38.5698C55.9333 37.3299 55.1837 36.2611 54.115 35.783ZM4.50935 4.06762C4.50935 3.31762 5.12105 2.7106 5.87105 2.7106H50.1283C50.8829 2.7106 51.49 3.31762 51.49 4.06762V7.25044H4.50935V4.06762ZM4.50935 9.12544H51.49V35.5206H4.50935V9.12544ZM36.8932 38.1456C36.4197 39.0339 35.4916 39.6386 34.4182 39.6386H21.7762C20.7027 39.6386 19.7699 39.0339 19.3012 38.1456H36.8932ZM53.3086 39.6433C53.3086 41.6543 51.6726 43.2925 49.6594 43.2925H6.33995C4.32899 43.2925 2.69543 41.6542 2.69543 39.6433V38.5698C2.69543 38.3378 2.88293 38.1456 3.11496 38.1456H17.29C17.8595 40.0886 19.6525 41.5136 21.7783 41.5136H34.4203C36.5461 41.5136 38.339 40.0886 38.9086 38.1456H52.8844C53.1164 38.1456 53.3086 38.3378 53.3086 38.5698L53.3086 39.6433Z" fill="#232D36"/>
<path d="M34.5345 22.5638H27.7305C27.2125 22.5638 26.793 22.9833 26.793 23.5013C26.793 24.0193 27.2125 24.4388 27.7305 24.4388H34.5345C35.0524 24.4388 35.472 24.0193 35.472 23.5013C35.472 22.9833 35.0524 22.5638 34.5345 22.5638Z" fill="#232D36"/>
<path d="M32.6593 26.6798H27.7305C27.2125 26.6798 26.793 27.0993 26.793 27.6173C26.793 28.1353 27.2125 28.5548 27.7305 28.5548H32.6593C33.1773 28.5548 33.5968 28.1353 33.5968 27.6173C33.5968 27.0993 33.1773 26.6798 32.6593 26.6798Z" fill="#232D36"/>
<path d="M23.0892 12.2072H10.332C8.80625 12.2072 7.56641 13.4494 7.56641 14.9729V30.8729C7.56641 30.9619 7.58281 31.0486 7.60625 31.1307C7.82656 32.4924 9.00779 33.5354 10.4304 33.5354H23.0869C23.6048 33.5354 24.0243 33.1158 24.0243 32.5979L24.0267 28.7447V13.1447C24.0267 12.6267 23.6072 12.2072 23.0892 12.2072ZM22.1517 31.6628H10.4307C9.88465 31.6628 9.44171 31.2175 9.44171 30.6738C9.44171 30.1277 9.88467 29.6847 10.4307 29.6847H22.1493L22.1517 31.6628ZM22.1517 27.8073H10.4307C10.0815 27.8073 9.75107 27.873 9.44171 27.9878V14.9732C9.44171 14.4951 9.82139 14.106 10.2948 14.0849V25.6253C10.2948 26.1433 10.7144 26.5628 11.2323 26.5628C11.7503 26.5628 12.1698 26.1433 12.1698 25.6253V14.0825H22.152L22.1517 27.8073Z" fill="#232D36"/>
<path d="M43.4252 18.467V18.4647C43.6056 18.1905 43.751 17.8975 43.8564 17.5834C43.9994 17.1709 44.0767 16.7326 44.0767 16.2709C44.0767 14.0349 42.258 12.2162 40.0267 12.2162H30.8437C28.6078 12.2162 26.7891 14.0349 26.7891 16.2709C26.7891 18.5022 28.6078 20.3209 30.8437 20.3209H37.2817L37.638 18.4459H30.8436C29.6436 18.4459 28.6639 17.4709 28.6639 16.2709C28.6639 15.0709 29.6436 14.0912 30.8436 14.0912H40.0266C41.1399 14.0912 42.0633 14.9349 42.1876 16.0178C42.1993 16.0998 42.2016 16.1818 42.2016 16.2685C42.2016 16.5803 42.1383 16.8756 42.0188 17.1427L40.561 15.774C40.3102 15.5396 39.954 15.46 39.6282 15.5654C39.3024 15.6709 39.061 15.9475 38.9977 16.2826L38.5899 18.4436H38.5875L38.236 20.3186H38.2383L37.2656 25.4724C37.1953 25.8451 37.3547 26.2224 37.6711 26.4287C37.9875 26.635 38.3977 26.635 38.7118 26.4217L40.3946 25.2873L41.3907 28.3412C41.5196 28.7373 41.8876 28.9881 42.2813 28.9881C42.3774 28.9881 42.4759 28.974 42.572 28.9412L45.136 28.1045C45.6282 27.9451 45.8977 27.4155 45.736 26.9232L44.7399 23.8693L46.7672 23.7943C47.1446 23.7803 47.4774 23.5412 47.6109 23.1873C47.7445 22.8334 47.6508 22.435 47.3742 22.1748L43.4252 18.467ZM42.5744 23.274L43.6642 26.6186L42.8814 26.874L41.7916 23.5295C41.7002 23.2506 41.4822 23.0303 41.2056 22.9342C41.1072 22.899 41.0041 22.8826 40.9009 22.8826C40.7158 22.8826 40.533 22.9365 40.3759 23.042L39.5251 23.6162L40.5236 18.3147L44.4564 22.0084L43.4299 22.0459C43.1369 22.0576 42.865 22.2053 42.6963 22.4467C42.5275 22.6881 42.483 22.9951 42.5744 23.274Z" fill="#232D36"/>
</svg>
