<svg width="33" height="24" viewBox="0 0 33 24" fill="none" xmlns="http://www.w3.org/2000/svg">
<path d="M26.3579 1.33861C26.0484 1.03845 26.0431 0.544401 26.3419 0.236259C26.6421 -0.0731956 27.1361 -0.0785064 27.4443 0.220321C28.9769 1.71445 30.2121 3.51275 31.0568 5.51684C31.8709 7.44927 32.3212 9.56896 32.3212 11.7881C32.3212 14.0061 31.8709 16.1259 31.0568 18.0594C30.2121 20.0636 28.9756 21.862 27.4443 23.356C27.1348 23.6561 26.6421 23.6495 26.3419 23.34C26.0418 23.0319 26.0484 22.5378 26.3579 22.2377C27.7431 20.8856 28.8601 19.2627 29.6224 17.4539C30.3542 15.7167 30.7593 13.803 30.7593 11.7881C30.7593 9.77328 30.3542 7.85942 29.6224 6.12236C28.8601 4.31345 27.7431 2.69045 26.3579 1.33861ZM14.6503 16.1752L20.2443 12.7527C20.5896 12.5416 20.7849 12.1923 20.7849 11.7872C20.7849 11.3821 20.5896 11.0328 20.2443 10.8217L14.6503 7.39924C14.2917 7.1801 13.8747 7.17213 13.5068 7.37799C13.1402 7.58385 12.9291 7.94379 12.9291 8.36478V15.2086C12.9291 15.6283 13.1402 15.9896 13.5068 16.1954C13.8733 16.4013 14.2917 16.3933 14.6503 16.1742V16.1752ZM22.6896 5.01367C22.3802 4.71484 22.3709 4.22079 22.6684 3.91132C22.9672 3.60186 23.4612 3.59124 23.7707 3.89007C24.8266 4.90742 25.6779 6.13329 26.2596 7.50121C26.8201 8.82269 27.1322 10.2717 27.1322 11.7896C27.1322 13.309 26.8214 14.758 26.2596 16.078C25.6779 17.446 24.8266 18.6719 23.7707 19.6892C23.4612 19.988 22.9672 19.9774 22.6684 19.6679C22.3695 19.3585 22.3802 18.8631 22.6896 18.5656C23.5941 17.693 24.3245 16.6425 24.8239 15.4684C25.302 14.3421 25.5676 13.099 25.5676 11.791C25.5676 10.4827 25.302 9.23963 24.8239 8.11352C24.3245 6.93946 23.594 5.88757 22.6896 5.01632V5.01367ZM9.63156 18.5644C9.94102 18.8632 9.95031 19.3572 9.65281 19.6667C9.35398 19.9762 8.85993 19.9868 8.55047 19.688C7.4946 18.6706 6.64327 17.4447 6.06156 16.0768C5.50111 14.7553 5.18899 13.3064 5.18899 11.7884C5.18899 10.269 5.49977 8.82004 6.06156 7.49999C6.64327 6.13203 7.4946 4.90616 8.55047 3.88885C8.85992 3.59002 9.35399 3.60064 9.65281 3.9101C9.95164 4.21955 9.94102 4.71494 9.63156 5.01244C8.7271 5.88502 7.99664 6.93555 7.49728 8.10964C7.01917 9.23589 6.75353 10.479 6.75353 11.7871C6.75353 13.0951 7.01916 14.3384 7.49728 15.4645C7.99667 16.6386 8.72713 17.6905 9.63156 18.5617V18.5644ZM5.9633 22.2381C6.27276 22.5382 6.27807 23.0323 5.97924 23.3404C5.67909 23.6499 5.18503 23.6552 4.87689 23.3564C3.34424 21.8622 2.10909 20.0639 1.26439 18.0598C0.450262 16.1274 0 14.0077 0 11.7885C0 9.57058 0.450228 7.45081 1.26439 5.51723C2.10909 3.5131 3.34557 1.71467 4.87689 0.220713C5.18635 -0.0794428 5.67909 -0.0728026 5.97924 0.23665C6.2794 0.544776 6.27276 1.03885 5.9633 1.339C4.57807 2.69104 3.46111 4.314 2.69876 6.1228C1.96698 7.85999 1.56187 9.77372 1.56187 11.7886C1.56187 13.8034 1.96694 15.7173 2.69876 17.4543C3.46111 19.2632 4.57804 20.8862 5.9633 22.2381Z" fill="#F14C26"/>
</svg>
