<svg width="69" height="70" viewBox="0 0 69 70" fill="none" xmlns="http://www.w3.org/2000/svg">
<path d="M66.3891 54.8805C66.3891 53.3747 65.1641 52.1523 63.661 52.1523L5.61095 52.1497C4.10515 52.1497 2.88281 53.3747 2.88281 54.8778V64.7903C2.88281 66.2961 4.10782 67.5184 5.61095 67.5184H63.661C65.1668 67.5184 66.3891 66.2934 66.3891 64.7903V54.8805ZM64.902 64.7902C64.902 65.4749 64.3457 66.0313 63.661 66.0313H5.61095C4.92625 66.0313 4.36993 65.4749 4.36993 64.7902V54.8777C4.36993 54.193 4.92625 53.6367 5.61095 53.6367H9.31535V57.1245C9.31535 57.3304 9.48118 57.4962 9.68713 57.4962C9.89307 57.4962 10.0589 57.3304 10.0589 57.1245V53.6367H15.5339V57.1245C15.5339 57.3304 15.6997 57.4962 15.9057 57.4962C16.1116 57.4962 16.2774 57.3304 16.2774 57.1245V53.6367H21.7524V57.1245C21.7524 57.3304 21.9182 57.4962 22.1242 57.4962C22.3301 57.4962 22.496 57.3304 22.496 57.1245V53.6367H27.9709V57.1245C27.9709 57.3304 28.1368 57.4962 28.3427 57.4962C28.5487 57.4962 28.7145 57.3304 28.7145 57.1245V53.6367H34.1895V57.1245C34.1895 57.3304 34.3553 57.4962 34.5612 57.4962C34.7672 57.4962 34.933 57.3304 34.933 57.1245V53.6367H40.408V57.1245C40.408 57.3304 40.5738 57.4962 40.7798 57.4962C40.9857 57.4962 41.1515 57.3304 41.1515 57.1245V53.6367H46.6265V57.1245C46.6265 57.3304 46.7923 57.4962 46.9983 57.4962C47.2042 57.4962 47.3701 57.3304 47.3701 57.1245V53.6367H52.845V57.1245C52.845 57.3304 53.0109 57.4962 53.2168 57.4962C53.4228 57.4962 53.5886 57.3304 53.5886 57.1245V53.6367H59.0636V57.1245C59.0636 57.3304 59.2294 57.4962 59.4353 57.4962C59.6413 57.4962 59.8071 57.3304 59.8071 57.1245V53.6367H63.6532C64.3379 53.6367 64.8943 54.193 64.8943 54.8777L64.902 64.7902Z" fill="#212121"/>
<path d="M2.85547 45.9108C2.85547 47.4166 4.08048 48.639 5.58361 48.639H34.7534C36.2593 48.639 37.4816 47.414 37.4816 45.9108L37.4843 5.04211C37.4843 3.5363 36.2593 2.31396 34.7561 2.31396H5.58423C4.07843 2.31396 2.85609 3.53897 2.85609 5.04211L2.85547 45.9108ZM4.34258 5.04211C4.34258 4.3574 4.89891 3.80108 5.58361 3.80108L34.7534 3.80375C35.4382 3.80375 35.9945 4.36008 35.9945 5.04478V45.9135C35.9945 46.5982 35.4382 47.1545 34.7534 47.1545L5.58361 47.1519C4.89891 47.1519 4.34258 46.5955 4.34258 45.9108V5.04211Z" fill="#212121"/>
<path d="M7.71227 17.2892H32.6239C33.0358 17.2892 33.3674 16.9549 33.3674 16.5457V7.48156C33.3674 7.06967 33.0331 6.73804 32.6239 6.73804H7.71227C7.30038 6.73804 6.96875 7.07237 6.96875 7.48156V16.543C6.96875 16.9548 7.30041 17.2892 7.71227 17.2892ZM8.45579 8.22782H31.8803V15.802H8.45579V8.22782Z" fill="#212121"/>
<path d="M7.71229 26.76H13.0375C13.4493 26.76 13.781 26.4256 13.781 26.0164V20.6805C13.781 20.2686 13.4466 19.937 13.0375 19.937H7.71229C7.3004 19.937 6.96877 20.2713 6.96877 20.6805V26.0164C6.96609 26.4283 7.30042 26.76 7.71229 26.76ZM8.45581 21.4241H12.2913V25.2702L8.45581 25.2729V21.4241Z" fill="#212121"/>
<path d="M22.8304 19.9365H17.5052C17.0934 19.9365 16.7617 20.2709 16.7617 20.68V26.016C16.7617 26.4279 17.096 26.7595 17.5052 26.7595H22.8304C23.2423 26.7595 23.5739 26.4252 23.5739 26.016V20.68C23.5739 20.2708 23.2423 19.9365 22.8304 19.9365ZM22.0869 25.2724H18.2514V21.4263H22.0869V25.2724Z" fill="#212121"/>
<path d="M27.2982 26.76H32.6234C33.0353 26.76 33.3669 26.4256 33.3669 26.0164V20.6805C33.3669 20.2686 33.0326 19.937 32.6234 19.937H27.2982C26.8863 19.937 26.5547 20.2713 26.5547 20.6805V26.0164C26.5547 26.4283 26.889 26.76 27.2982 26.76ZM28.0444 21.4241H31.8798V25.2702H28.0444V21.4241Z" fill="#212121"/>
<path d="M7.71229 35.4846H13.0375C13.4493 35.4846 13.781 35.1502 13.781 34.7411V29.4051C13.781 28.9933 13.4466 28.6616 13.0375 28.6616H7.71229C7.3004 28.6616 6.96877 28.9959 6.96877 29.4051V34.7411C6.96609 35.1529 7.30042 35.4846 7.71229 35.4846ZM8.45581 30.1513H12.2913V33.9975H8.45581V30.1513Z" fill="#212121"/>
<path d="M22.8304 28.6616H17.5052C17.0934 28.6616 16.7617 28.9959 16.7617 29.4051V34.7411C16.7617 35.1529 17.096 35.4846 17.5052 35.4846H22.8304C23.2423 35.4846 23.5739 35.1503 23.5739 34.7411V29.4051C23.5739 28.9959 23.2423 28.6616 22.8304 28.6616ZM22.0869 33.9975H18.2514V30.1514H22.0869V33.9975Z" fill="#212121"/>
<path d="M7.71229 44.2089H13.0375C13.4493 44.2089 13.781 43.8746 13.781 43.4654V38.1295C13.781 37.7176 13.4466 37.386 13.0375 37.386H7.71229C7.3004 37.386 6.96877 37.7203 6.96877 38.1295V43.4654C6.96609 43.8773 7.30042 44.2089 7.71229 44.2089ZM8.45581 38.8757H12.2913V42.7218H8.45581V38.8757Z" fill="#212121"/>
<path d="M22.8304 37.386H17.5052C17.0934 37.386 16.7617 37.7203 16.7617 38.1295V43.4654C16.7617 43.8773 17.096 44.2089 17.5052 44.2089H22.8304C23.2423 44.2089 23.5739 43.8746 23.5739 43.4654V38.1295C23.5739 37.7203 23.2423 37.386 22.8304 37.386ZM22.0869 42.7219H18.2514V38.8758H22.0869V42.7219Z" fill="#212121"/>
<path d="M32.626 28.6646H27.2982C26.8863 28.6646 26.5547 28.9989 26.5547 29.4081V43.4712C26.5547 43.8831 26.889 44.2148 27.2982 44.2148H32.626C33.0379 44.2148 33.3696 43.8804 33.3696 43.4712V29.4081C33.3696 28.9962 33.0352 28.6646 32.626 28.6646ZM31.8825 42.7277H28.0444L28.0417 30.1517H31.8798L31.8825 42.7277Z" fill="#212121"/>
<path d="M48.9511 6.13592V4.48297C48.9511 3.30343 47.991 2.34326 46.8088 2.34326H43.3611C42.1789 2.34326 41.2188 3.30343 41.2188 4.48297C41.2188 25.3104 41.2187 16.2914 41.2268 43.9097C41.2268 44.6426 41.6868 45.2684 42.3314 45.5225V46.7877C42.3314 47.6757 43.0268 48.3684 43.9121 48.3684H46.2658C47.1377 48.3684 47.8465 47.6596 47.8465 46.7877V45.5225C48.4911 45.2684 48.9511 44.6426 48.9511 43.9097V43.324C48.9511 41.3849 48.9511 33.749 48.9538 7.83154C49.224 8.04017 49.4112 8.3531 49.4112 8.71954V16.5724C49.4112 18.0221 50.5961 19.2016 52.0511 19.2016C52.463 19.2016 52.7946 18.8672 52.7946 18.458C52.7946 18.0462 52.4603 17.7145 52.0511 17.7145C51.4172 17.7145 50.901 17.2037 50.901 16.5751L50.8956 8.71947C50.8956 7.50788 50.0665 6.49685 48.9512 6.19195V6.14113L48.9511 6.13592ZM46.3567 46.7876C46.3567 46.8491 46.3112 46.8812 46.2658 46.8812H43.9121C43.8533 46.8812 43.8185 46.8464 43.8185 46.7876V45.6482H46.3567L46.3567 46.7876ZM47.4613 43.9097C47.4613 44.0461 47.349 44.1585 47.2126 44.1585H42.9626C42.8262 44.1585 42.7139 44.0461 42.7139 43.9097V21.6273H47.4614L47.4613 43.9097ZM47.464 20.1374H42.7085V6.87944H47.464V20.1374ZM47.464 5.39226H42.7085V4.4829C42.7085 4.1245 43.0027 3.83296 43.3638 3.83296H46.8115C47.1725 3.83296 47.4667 4.1245 47.4667 4.4829L47.464 5.39226Z" fill="#212121"/>
<path d="M56.8908 48.769H62.339C63.5426 48.769 64.5215 47.7901 64.5215 46.5865C64.5188 35.3854 64.5215 46.1586 64.5215 11.0058C64.5215 10.9095 64.468 10.7222 64.4359 10.6607L60.2742 2.73867C60.0175 2.24922 59.215 2.24922 58.9556 2.73867L54.8206 10.6101C54.7778 10.6769 54.7109 10.8695 54.7109 11.0032V46.584C54.7083 47.7902 55.6872 48.769 56.8908 48.769ZM58.2816 7.22652H60.9508L62.8338 10.8105L61.6998 11.736C61.6008 11.6557 59.98 10.3452 60.0843 10.4281C59.8168 10.2087 59.421 10.2007 59.1428 10.4281C59.0412 10.511 57.4337 11.8188 57.5353 11.736L56.3959 10.8132L58.2816 7.22652ZM56.198 12.5731L57.0619 13.2738C57.3508 13.5092 57.7546 13.4771 58.0061 13.2712C58.1077 13.1883 59.7152 11.8804 59.6135 11.9632L61.229 13.2712C61.5099 13.4985 61.9057 13.4878 62.1732 13.2685L63.0344 12.5678V37.9793H56.2007L56.198 12.5731ZM63.0317 39.4718V41.435H56.198V39.4718H63.0317ZM56.198 42.9488H63.0344V46.5863C63.0344 46.9688 62.7242 47.279 62.3417 47.279H56.8935C56.511 47.279 56.2008 46.9687 56.2008 46.5863L56.198 42.9488Z" fill="#212121"/>
</svg>
