<svg width="24" height="24" viewBox="0 0 24 24" fill="none" xmlns="http://www.w3.org/2000/svg">
<path d="M14.6503 8.81522C14.3667 8.54146 13.9085 8.54146 13.6248 8.81522L11.9523 10.4373L10.2865 8.81522C10.0015 8.53816 9.53925 8.53816 9.25423 8.81522C8.96854 9.09162 8.96854 9.53994 9.25423 9.81636L10.9268 11.4318L9.25423 13.0472C9.10014 13.1749 9.00808 13.3594 9.00059 13.5557C8.99241 13.7521 9.06946 13.9426 9.21263 14.0814C9.35582 14.2203 9.55287 14.295 9.75538 14.2878C9.9579 14.2798 10.1474 14.1906 10.2797 14.0418L11.9523 12.4263L13.618 14.0418C13.9064 14.2812 14.3367 14.2653 14.6053 14.0047C14.8739 13.7442 14.8903 13.327 14.6435 13.0473L12.9777 11.4318L14.6435 9.81638C14.7819 9.68479 14.861 9.5056 14.8623 9.31714C14.8637 9.12934 14.7873 8.94812 14.6503 8.81522Z" fill="black"/>
<path d="M12 3.75854C9.87816 3.75854 7.8436 4.57585 6.34282 6.03062C4.84276 7.48604 4 9.45922 4 11.517C4 13.5748 4.84275 15.5479 6.34282 17.0034C7.84355 18.4581 9.87816 19.2754 12 19.2754C14.1218 19.2754 16.1564 18.4581 17.6572 17.0034C19.1572 15.5479 20 13.5748 20 11.517C20 9.45922 19.1573 7.48609 17.6572 6.03062C16.1565 4.57586 14.1218 3.75854 12 3.75854ZM12 17.865C10.264 17.865 8.59906 17.1965 7.37162 16.0056C6.14362 14.8154 5.45436 13.2007 5.45436 11.517C5.45436 9.83333 6.14369 8.21874 7.37162 7.02836C8.59892 5.83744 10.2639 5.16899 12 5.16899C13.7361 5.16899 15.4009 5.83751 16.6284 7.02836C17.8564 8.2186 18.5456 9.83333 18.5456 11.517C18.5456 13.2007 17.8563 14.8152 16.6284 16.0056C15.4011 17.1965 13.7361 17.865 12 17.865Z" fill="black"/>
</svg>
