<svg width="32" height="32" viewBox="0 0 32 32" fill="none" xmlns="http://www.w3.org/2000/svg">
<path d="M13.6072 5.63624L13.2219 7.91998C13.1896 8.10873 13.2723 8.29873 13.434 8.40872C13.5956 8.51872 13.8089 8.52997 13.9822 8.43747L15.9694 7.37497L17.9567 8.43747C18.1299 8.52997 18.3433 8.51872 18.5049 8.40872C18.6665 8.29872 18.7492 8.10872 18.7169 7.91998L18.3316 5.63624L19.9594 4.02248C20.0952 3.88873 20.1417 3.69249 20.0797 3.51499C20.0189 3.33749 19.8599 3.20749 19.6685 3.17998L17.4395 2.85124L16.4374 0.787501C16.3521 0.612499 16.1698 0.5 15.9694 0.5C15.769 0.5 15.5867 0.612499 15.5013 0.787501L14.4993 2.85L12.2703 3.17873V3.17998C12.0789 3.20748 11.9199 3.33748 11.8591 3.51499C11.797 3.69249 11.8436 3.88875 11.9793 4.02248L13.6072 5.63624ZM14.9299 3.79873H14.9286C15.0993 3.77248 15.2454 3.66748 15.3191 3.51623L15.9694 2.17623L16.6198 3.51623C16.6935 3.66749 16.8396 3.77248 17.0102 3.79873L18.5165 4.02123L17.4098 5.11874C17.2947 5.23124 17.243 5.39124 17.2688 5.54747L17.5248 7.06373L16.219 6.36622C16.0638 6.28373 15.875 6.28373 15.7199 6.36622L14.414 7.06373L14.67 5.54747C14.6959 5.39122 14.6442 5.23122 14.5291 5.11874L13.4223 4.02123L14.9299 3.79873Z" fill="#252525"/>
<path d="M27.3119 9.22125L27.1089 10.42C27.0779 10.6087 27.1606 10.7988 27.3222 10.9087C27.4839 11.0187 27.6972 11.03 27.8704 10.9375L28.8983 10.3875L29.9262 10.9375C30.0995 11.03 30.3128 11.0187 30.4744 10.9087C30.636 10.7987 30.7188 10.6087 30.6878 10.42L30.4861 9.22125L31.3381 8.37625L31.3368 8.3775C31.4726 8.2425 31.5191 8.04624 31.4571 7.86877C31.3963 7.69127 31.2373 7.56252 31.0459 7.53376L29.8887 7.36251L29.3664 6.2875C29.281 6.1125 29.0987 6 28.8983 6C28.6979 6 28.5156 6.1125 28.4303 6.2875L27.9079 7.36251L26.7507 7.53376C26.5594 7.56251 26.4003 7.69126 26.3396 7.86877C26.2775 8.04627 26.3241 8.24253 26.4598 8.3775L27.3119 9.22125ZM28.3372 8.30998V8.31123C28.5079 8.28623 28.654 8.17998 28.7277 8.02873L28.8984 7.67622L29.069 8.02873C29.1427 8.17998 29.2888 8.28623 29.4595 8.31123L29.8939 8.37498L29.5629 8.70372C29.4479 8.81747 29.3961 8.97622 29.422 9.13245L29.4944 9.56372L29.1479 9.37872H29.1492C28.9927 9.29622 28.804 9.29622 28.6475 9.37872L28.301 9.56372L28.3734 9.13245H28.3747C28.4006 8.9762 28.3489 8.81746 28.2338 8.70372L27.9028 8.37498L28.3372 8.30998Z" fill="#252525"/>
<path d="M1.45253 10.2212L1.24954 11.42C1.21851 11.6087 1.30125 11.7988 1.46287 11.9087C1.62449 12.0187 1.83782 12.03 2.01106 11.9375L3.03896 11.3875L4.06686 11.9375C4.24012 12.03 4.45346 12.0187 4.61506 11.9087C4.77665 11.7987 4.85942 11.6087 4.82839 11.42L4.62669 10.2212L5.47873 9.37625L5.47744 9.3775C5.6132 9.2425 5.65975 9.04624 5.59768 8.86877C5.53692 8.69127 5.37789 8.56252 5.18652 8.53376L4.02934 8.36251L3.507 7.2875C3.42166 7.1125 3.23936 7 3.03894 7C2.83852 7 2.65624 7.1125 2.57088 7.2875L2.04854 8.36251L0.891353 8.53376C0.699999 8.56251 0.540964 8.69126 0.480193 8.86877C0.418132 9.04627 0.464678 9.24253 0.600437 9.3775L1.45253 10.2212ZM2.47785 9.31123C2.64851 9.28623 2.79462 9.17998 2.86832 9.02873L3.03899 8.67622L3.20965 9.02873C3.28335 9.17998 3.42945 9.28623 3.60013 9.31123L4.03456 9.37498L3.70356 9.70372C3.58849 9.81747 3.53677 9.97622 3.56263 10.1325L3.63504 10.5637L3.28852 10.3787H3.28981C3.13337 10.2962 2.94459 10.2962 2.78816 10.3787L2.44164 10.5637L2.51405 10.1325H2.51534C2.5412 9.9762 2.48948 9.81745 2.37441 9.70372L2.04342 9.37498L2.47785 9.31123Z" fill="#252525"/>
<path d="M2.77273 19.1615C2.64085 19.289 2.59043 19.4752 2.63956 19.649C2.68998 19.8227 2.83221 19.9565 3.01322 20.0002L5.20734 20.5302V28.0153C5.20734 28.2353 5.35732 28.4303 5.57584 28.4941L15.9194 31.4941C16.0164 31.5228 16.1198 31.5216 16.2155 31.4916V31.4941L26.559 28.4941H26.5603C26.7788 28.4303 26.9288 28.2353 26.9288 28.0153V20.5302L29.1229 20.0002C29.3027 19.9565 29.4462 19.8227 29.4953 19.649C29.5457 19.4752 29.4953 19.289 29.3634 19.1615L26.2604 16.1615C26.188 16.094 26.0974 16.0477 26.0005 16.029L26.0018 16.0252L19.7956 14.7615L19.5823 15.7402L23.3848 16.514L16.0681 18.004L8.75153 16.5152L12.554 15.7415L12.3406 14.7627L6.13452 16.0265L6.13581 16.0302V16.029C6.03754 16.0477 5.94704 16.094 5.87593 16.1615L2.77273 19.1615ZM25.7265 17.0602L27.9852 19.244L18.87 21.4477L16.9487 18.8477L25.7265 17.0602ZM16.5854 20.0752L18.2339 22.3052H18.2326C18.3568 22.4727 18.5727 22.5502 18.7795 22.5002L25.8946 20.7802V27.6426L16.5854 30.3426L16.5854 20.0752ZM15.5511 30.3428L6.24188 27.6428V20.7804L13.3569 22.5004C13.5625 22.5504 13.7797 22.4728 13.9025 22.3053L15.551 20.0753L15.5511 30.3428ZM6.4087 17.0602L15.1866 18.8464L13.2666 21.4477L4.15006 19.2439L6.4087 17.0602Z" fill="#252525"/>
<path d="M15.4531 8.5H16.4875V14.5H15.4531V8.5Z" fill="#252525"/>
<path d="M15.4531 15.5002H16.4875V16.5002H15.4531V15.5002Z" fill="#252525"/>
<path d="M18.0353 14.4938L19.0696 14.5063C19.0709 14.3963 19.1317 11.7913 21.4112 10.425C22.686 9.70006 24.2207 9.53631 25.6287 9.97378L25.9571 9.02505V9.0263C24.2569 8.49756 22.4042 8.69756 20.8654 9.57503C18.1102 11.2275 18.0379 14.3613 18.0353 14.4938Z" fill="#252525"/>
<path d="M10.0787 9.4611C11.9043 10.1949 13.024 12.2061 12.8637 14.4649L13.8954 14.5337C14.0855 11.8462 12.7111 9.43609 10.4743 8.53753L10.4769 8.53878C9.1917 8.05878 7.76817 8.05504 6.48047 8.53003L6.83344 9.47003H6.83473C7.87812 9.0813 9.03395 9.07734 10.0787 9.4611Z" fill="#252525"/>
</svg>
