<svg width="24" height="20" viewBox="0 0 24 20" fill="none" xmlns="http://www.w3.org/2000/svg">
<path fill-rule="evenodd" clip-rule="evenodd" d="M0 1C0 0.447715 0.448839 0 1.00251 0H4.50267C5.84547 0 7.02558 0.887932 7.39448 2.17584L7.91698 4H20.991C22.9476 4 24.3833 5.83417 23.9087 7.72761L22.405 13.7276C22.0702 15.0631 20.8673 16 19.4872 16H11.5375C10.1947 16 9.01457 15.1121 8.64567 13.8242L5.4666 2.72528C5.34364 2.29598 4.95027 2 4.50267 2H1.00251C0.448839 2 0 1.55228 0 1ZM8.48984 6L10.5735 13.2747C10.6965 13.704 11.0899 14 11.5375 14H19.4872C19.9472 14 20.3482 13.6877 20.4598 13.2425L21.9636 7.24254C22.1217 6.61139 21.6432 6 20.991 6H8.48984ZM10.0251 19C10.0251 18.4477 10.4739 18 11.0276 18H12.0301C12.5838 18 13.0326 18.4477 13.0326 19C13.0326 19.5523 12.5838 20 12.0301 20H11.0276C10.4739 20 10.0251 19.5523 10.0251 19ZM18.0452 19C18.0452 18.4477 18.494 18 19.0477 18H20.0502C20.6039 18 21.0527 18.4477 21.0527 19C21.0527 19.5523 20.6039 20 20.0502 20H19.0477C18.494 20 18.0452 19.5523 18.0452 19Z" fill="#525252"/>
</svg>
