<svg width="40" height="40" viewBox="0 0 40 40" fill="none" xmlns="http://www.w3.org/2000/svg">
<g clip-path="url(#clip0_1_1341)">
<path d="M20 40C31.0457 40 40 31.0457 40 20C40 8.95431 31.0457 0 20 0C8.95431 0 0 8.95431 0 20C0 31.0457 8.95431 40 20 40Z" fill="black"/>
<path fill-rule="evenodd" clip-rule="evenodd" d="M25.2842 8C25.6883 11.4057 27.6278 13.4362 31 13.6522V17.4827C29.0458 17.6699 27.334 17.0435 25.343 15.8627V23.0269C25.343 32.128 15.2192 34.9721 11.1491 28.4487C8.53365 24.2509 10.1352 16.8851 18.5252 16.5899V20.6292C17.8861 20.73 17.2028 20.8884 16.5783 21.0972C14.7123 21.7164 13.6543 22.8757 13.9482 24.9205C14.5139 28.8375 21.846 29.9967 21.2362 22.3429V8.0072H25.2842V8Z" fill="white"/>
</g>
<defs>
<clipPath id="clip0_1_1341">
<rect width="40" height="40" fill="white"/>
</clipPath>
</defs>
</svg>
