<svg width="40" height="40" viewBox="0 0 40 40" fill="none" xmlns="http://www.w3.org/2000/svg">
<g clip-path="url(#clip0_1_1332)">
<path d="M20 40C31.0457 40 40 31.0457 40 20C40 8.95431 31.0457 0 20 0C8.95431 0 0 8.95431 0 20C0 31.0457 8.95431 40 20 40Z" fill="black"/>
<path d="M31.0537 13.1464C30.356 13.461 29.5899 13.6526 28.8512 13.7757C29.2069 13.721 29.7267 13.078 29.9319 12.8181C30.2466 12.4214 30.5202 11.9699 30.6707 11.4775C30.6843 11.4364 30.698 11.3954 30.6707 11.368C30.6296 11.3543 30.5886 11.3543 30.5475 11.3817C29.7131 11.8331 28.8512 12.1478 27.9347 12.3803C27.8526 12.394 27.7979 12.3803 27.7568 12.3393C27.6748 12.2572 27.6064 12.1751 27.5243 12.1067C27.1412 11.7784 26.7309 11.5185 26.2521 11.327C25.6365 11.0807 24.9661 10.9713 24.3095 11.0123C23.6666 11.0534 23.0373 11.2312 22.4627 11.5322C21.8882 11.8194 21.382 12.2435 20.9716 12.736C20.5475 13.2558 20.2466 13.8714 20.0824 14.5144C19.9319 15.1437 19.9456 15.7593 20.0414 16.3885C20.0551 16.498 20.0414 16.5117 19.9456 16.498C16.3478 15.9645 13.3793 14.6785 10.9579 11.9289C10.8622 11.8058 10.8075 11.8058 10.7117 11.9426C9.65835 13.5294 10.1645 16.0739 11.4915 17.3324C11.6693 17.4966 11.8471 17.6608 12.0386 17.8249C11.9702 17.8386 11.0947 17.7428 10.3013 17.3324C10.1919 17.264 10.1371 17.3051 10.1371 17.4282C10.1235 17.606 10.1371 17.7565 10.1645 17.948C10.3697 19.5486 11.4778 21.0397 13.0099 21.6279C13.1878 21.71 13.393 21.7647 13.5845 21.8058C13.2425 21.8878 12.8731 21.9426 11.8882 21.8605C11.765 21.8331 11.7103 21.9015 11.765 22.011C12.5174 24.0493 14.1317 24.6512 15.3355 25.0069C15.4997 25.0342 15.6638 25.0342 15.828 25.0753C15.8143 25.0889 15.8143 25.0889 15.8006 25.1026C15.4039 25.7182 14.0086 26.1697 13.3656 26.4022C12.1891 26.8126 10.9032 27.0041 9.65835 26.881C9.45315 26.8536 9.41211 26.8536 9.35739 26.881C9.30267 26.9084 9.34371 26.9631 9.41211 27.0178C9.65835 27.182 9.91826 27.3324 10.1782 27.4692C10.9716 27.8933 11.7924 28.2216 12.6542 28.4542C17.1139 29.6854 22.1207 28.7825 25.4723 25.4583C28.0988 22.8454 29.0154 19.2476 29.0154 15.6498C29.0154 15.513 29.1795 15.4309 29.2753 15.3625C29.9593 14.8427 30.5065 14.2408 31.0127 13.5431C31.1221 13.3926 31.1221 13.2558 31.1221 13.2011C31.1221 13.1874 31.1221 13.1874 31.1221 13.1874C31.1495 13.0917 31.1358 13.1054 31.0537 13.1464Z" fill="white"/>
</g>
<defs>
<clipPath id="clip0_1_1332">
<rect width="40" height="40" fill="white"/>
</clipPath>
</defs>
</svg>
