<svg width="69" height="70" viewBox="0 0 69 70" fill="none" xmlns="http://www.w3.org/2000/svg">
<path d="M34.4808 37.5581C35.6068 37.5581 36.6205 36.8814 37.0512 35.841C37.4818 34.8032 37.2437 33.6077 36.4494 32.8106C35.6523 32.0162 34.4567 31.7782 33.419 32.2061C32.3786 32.6367 31.6992 33.6504 31.6992 34.7764C31.7019 36.3117 32.9456 37.5554 34.4808 37.5581ZM34.4808 34.0516C34.7751 34.0516 35.0398 34.2281 35.1522 34.4983C35.2672 34.7711 35.203 35.084 34.9944 35.2927C34.7884 35.5013 34.4755 35.5628 34.2027 35.4505C33.9299 35.3355 33.7534 35.0707 33.7534 34.7765C33.7561 34.3753 34.0796 34.0516 34.4808 34.0516Z" fill="#212121"/>
<path d="M60.552 38.1434C59.1825 37.3544 57.5056 37.3116 56.0987 38.0338C55.1144 36.9532 54.0098 35.8673 52.8089 34.7787C59.014 29.2262 62.7508 23.4893 60.5707 19.7125C58.8777 16.7811 54.0045 16.1632 46.8554 17.9766H46.8527C46.5879 18.0408 46.3579 18.2093 46.2188 18.4447C46.0771 18.6774 46.0369 18.9609 46.1038 19.2256C46.1707 19.4904 46.3419 19.7178 46.5772 19.8569C46.8126 19.9959 47.0934 20.0361 47.3582 19.9665C53.2691 18.4687 57.65 18.7656 58.7921 20.7395C60.1241 23.0477 57.3157 27.9741 51.2391 33.4148C49.2358 31.7405 47.1469 30.1704 44.9778 28.7181C44.6997 23.8743 43.8572 19.0761 42.469 14.4276C44.5151 13.1117 45.2025 10.4424 44.0497 8.30002C42.8969 6.16032 40.2918 5.26431 38.0665 6.2459C37.1251 5.26698 35.8386 4.69196 34.4825 4.64917C31.0002 4.64917 27.9778 8.75206 25.9689 16.2008C25.8993 16.463 25.9341 16.7438 26.0705 16.9792C26.2069 17.2172 26.4316 17.3884 26.6937 17.4606C26.782 17.4847 26.8702 17.4954 26.9612 17.4954C27.4265 17.4954 27.8331 17.1851 27.9534 16.7357C29.6197 10.5466 32.1232 6.70343 34.4822 6.70343C35.1911 6.7382 35.865 7.01904 36.3865 7.49783C35.2043 8.88326 34.9369 10.8278 35.6992 12.478C36.4641 14.1309 38.1197 15.1847 39.9385 15.182C40.1391 15.1793 40.3397 15.166 40.5403 15.1365C40.9762 16.5193 41.3614 18.0118 41.6904 19.5925V19.5951C39.2351 20.4885 36.8279 21.5155 34.4825 22.6683C23.1848 17.1639 11.3894 14.5265 8.39379 19.7128C6.21396 23.4894 9.9504 29.2289 16.1584 34.7819C15.0083 35.8089 13.9117 36.8948 12.8712 38.0315C12.5797 37.8818 12.2721 37.7614 11.9538 37.6758C9.78737 37.0927 7.51127 38.1359 6.53769 40.1579C5.56678 42.1825 6.17394 44.6111 7.98468 45.9377C7.60755 47.2429 7.75466 48.6418 8.3939 49.84C9.45307 51.6748 11.7024 52.6056 15.0029 52.6056H15.0056C16.7842 52.5789 18.5548 52.3756 20.2933 51.9958C22.3341 51.5598 24.3481 50.9929 26.3166 50.3027C26.3888 50.2867 26.4584 50.2626 26.5226 50.2332C29.24 49.2784 31.8986 48.1657 34.4823 46.8953C36.8279 48.048 39.2298 49.0778 41.6827 49.9764C40.0083 57.9546 37.1491 62.8496 34.4823 62.8496C32.1634 62.8496 29.6893 59.1051 28.0257 53.0788C27.8733 52.5332 27.3089 52.2123 26.7606 52.3647C26.215 52.5145 25.894 53.0815 26.0438 53.6271C28.0524 60.8994 31.0507 64.9036 34.4821 64.9036C38.8417 64.9036 41.944 58.7974 43.6482 50.6425C45.2985 51.1855 46.9755 51.6375 48.6738 51.9986C50.4124 52.3757 52.183 52.5816 53.9616 52.6057C57.2621 52.6057 59.5142 51.6749 60.5706 49.8401L60.5733 49.8428C61.2125 48.6446 61.3596 47.243 60.9825 45.9405C62.253 45.0071 62.9644 43.4986 62.8761 41.9259C62.7905 40.3532 61.916 38.933 60.5519 38.1466L60.552 38.1434ZM37.3281 10.5169C37.3281 9.46041 37.9647 8.50826 38.9383 8.10442C39.9145 7.69788 41.0378 7.92255 41.784 8.66877C42.5302 9.41496 42.7549 10.5384 42.3511 11.5145C41.9472 12.4908 40.995 13.1274 39.9386 13.1274C38.4969 13.1247 37.3308 11.9559 37.3281 10.5169ZM59.5249 39.9216C60.4396 40.4485 60.9478 41.4756 60.8114 42.5214C60.6723 43.5698 59.9181 44.4311 58.899 44.7039C57.88 44.9794 56.7941 44.6129 56.1522 43.7758C55.5076 42.9386 55.4327 41.7965 55.9596 40.8791C56.302 40.2773 56.8716 39.836 57.543 39.6568C58.2116 39.4776 58.9258 39.5712 59.5249 39.9216ZM49.6638 34.7756C48.2837 35.9257 46.7671 37.0919 45.1142 38.2526C45.1624 37.0945 45.1865 35.9337 45.1865 34.7783C45.1865 33.6095 45.1624 32.4514 45.1169 31.3093C46.7378 32.4433 48.2569 33.6042 49.6638 34.7756ZM25.9798 39.6943C25.8862 38.1296 25.8354 36.4794 25.8354 34.7756C25.8354 33.0719 25.8862 31.427 25.9825 29.8597C27.3117 28.9851 28.7079 28.1184 30.1549 27.284C31.6527 26.4254 33.105 25.6471 34.4905 24.9571C35.9054 25.6686 37.347 26.4469 38.81 27.2893C40.2543 28.1211 41.6478 28.9824 42.9958 29.8677C43.0868 31.4725 43.1349 33.1093 43.1349 34.7783C43.1349 36.4714 43.0841 38.1082 42.9958 39.6916C41.6719 40.5609 40.2757 41.4221 38.81 42.2699C37.3684 43.1017 35.9241 43.872 34.4851 44.5969C33.0462 43.872 31.6046 43.1017 30.1629 42.2699C28.6946 41.4221 27.3011 40.5635 25.9798 39.6943ZM32.1743 23.8338C31.1847 24.3553 30.1683 24.9116 29.1279 25.5054C28.1142 26.0911 27.1299 26.693 26.1671 27.3001C26.3409 25.3369 26.5843 23.4486 26.8972 21.6379C28.5822 22.2557 30.3449 22.986 32.1743 23.8338ZM23.851 38.2502C22.2007 37.0895 20.6869 35.926 19.3068 34.7786C20.719 33.6017 22.2355 32.4383 23.851 31.3016C23.8055 32.4302 23.7814 33.5884 23.7814 34.7759C23.7841 35.9635 23.8055 37.1242 23.851 38.2502ZM42.0785 21.6379C42.3888 23.4406 42.6322 25.3342 42.806 27.3054C41.8378 26.6956 40.8455 26.0965 39.8318 25.5081C38.8342 24.9304 37.8178 24.3767 36.7934 23.8391C38.6041 22.9992 40.3668 22.2637 42.0785 21.6379ZM10.1699 20.7419C11.5018 18.4337 17.1744 18.4042 24.9314 20.9478C24.4848 23.5155 24.1745 26.1072 24.0006 28.7097C21.8288 30.1673 19.7346 31.74 17.7313 33.4197C11.6492 27.9768 8.83838 23.0498 10.1701 20.7389L10.1699 20.7419ZM8.22269 41.5049C8.54365 40.304 9.67235 39.4963 10.9134 39.5765C12.1571 39.6594 13.1681 40.6063 13.3312 41.8419C13.4944 43.075 12.7615 44.2518 11.582 44.653C10.4025 45.0542 9.10528 44.5647 8.48213 43.4869C8.13443 42.8878 8.04082 42.1735 8.22269 41.5049ZM19.8764 49.9809C14.8213 51.0186 11.1916 50.5827 10.17 48.8094V48.8121C9.84369 48.1809 9.75008 47.4534 9.90788 46.758C11.8042 47.1191 13.7272 46.2685 14.7356 44.621C15.744 42.9761 15.6289 40.8764 14.4467 39.3493C15.4845 38.2206 16.5784 37.1481 17.7259 36.1317C19.7372 37.8033 21.8314 39.3734 24.0006 40.831C24.1744 43.4361 24.4847 46.0278 24.9314 48.6011C23.2731 49.1574 21.5854 49.6201 19.8763 49.9839L19.8764 49.9809ZM26.8974 47.9214C26.5898 46.1134 26.3437 44.2251 26.1699 42.2513C27.1461 42.8691 28.1357 43.4682 29.1333 44.0459C30.1444 44.629 31.1553 45.1799 32.1691 45.7122C30.377 46.544 28.6118 47.2875 26.8974 47.9214ZM36.7962 45.7148C37.8072 45.1826 38.8208 44.629 39.8319 44.0459C40.8429 43.4628 41.8245 42.8637 42.8061 42.2458C42.6269 44.2572 42.3755 46.1535 42.0706 47.9241C40.3535 47.2902 38.5908 46.5467 36.7962 45.7148ZM58.7951 48.812C57.7734 50.5826 54.1465 51.0213 49.0887 49.9835C47.3796 49.6198 45.6946 49.1624 44.039 48.6061C44.4803 46.0331 44.7932 43.4387 44.9698 40.8312C47.1389 39.3736 49.2332 37.8062 51.2418 36.1346C52.4454 37.2098 53.542 38.285 54.5209 39.3521C53.6945 40.414 53.3735 41.7807 53.6356 43.0993C53.8977 44.4206 54.7215 45.56 55.8904 46.2233C56.8425 46.785 57.9712 46.9776 59.0571 46.7609C59.2149 47.4536 59.1214 48.1808 58.7951 48.812Z" fill="#212121"/>
</svg>
