<svg width="69" height="70" viewBox="0 0 69 70" fill="none" xmlns="http://www.w3.org/2000/svg">
<g clip-path="url(#clip0_11_360)">
<path d="M67.4425 27.8358L68.5471 29.5717C68.8628 30.0451 68.8628 30.5185 68.3893 30.8342L59.0815 39.5108C58.7658 39.8264 58.2925 39.8264 57.9768 39.6686L57.5034 39.5108C56.8722 39.1951 56.7144 38.7218 56.8722 38.0905C57.1878 37.6171 57.6612 37.3015 58.1346 37.4593L66.3374 29.8872L66.0218 29.2559L59.239 35.4076L49.458 44.3999V64.1201C49.458 65.0669 49.1423 65.8559 48.5111 66.4871C47.8799 67.1183 47.0909 67.4339 46.1441 67.4339H3.70604C2.75923 67.4339 1.81242 67.1183 1.18119 66.4871C0.549977 65.8559 0.234375 65.0669 0.234375 64.1201V8.90196C0.234375 7.00834 1.02336 5.27247 2.128 4.01008C3.39046 2.90544 5.12626 2.11646 7.01988 2.11646H52.7719C54.35 2.11646 55.6124 2.74767 56.717 3.6945C57.6638 4.64131 58.295 6.06153 58.295 7.48174V21.6812H49.461V34.303L54.1951 30.0423L62.8717 21.997C63.3451 21.5236 63.9763 21.3658 64.6076 21.3658C65.2388 21.3658 65.87 21.6814 66.3434 22.1548L67.9215 23.8907C68.3949 24.3641 68.7104 25.1531 68.5527 25.7843C68.5527 26.4155 68.3949 27.0467 67.7637 27.5202L67.4481 27.8358L67.4425 27.8358ZM48.5118 4.17102H7.01995C5.59973 4.17102 4.49509 4.64444 3.70611 5.59124C2.7593 6.38023 2.28589 7.48486 2.28589 8.90508V64.1232C2.28589 64.4388 2.4437 64.7544 2.7593 65.07C2.91711 65.2278 3.23272 65.3856 3.70611 65.3856H46.1442C46.4598 65.3856 46.7754 65.2278 47.091 65.07C47.2488 64.7544 47.4066 64.4388 47.4066 64.1232V46.2969L42.0413 51.1888C41.8835 51.3466 41.8835 51.3466 41.7257 51.3466L36.676 54.187C36.2026 54.3448 35.7292 54.3448 35.4135 54.0292L35.2557 53.8714L33.3621 55.4494C33.0465 55.9228 32.4153 55.9228 31.9419 55.4494C31.6263 54.976 31.6263 54.3448 32.0997 54.0292L33.8356 52.2933L33.6778 52.1355C33.3622 51.8199 33.3622 51.3465 33.6778 50.8731L36.8339 45.9812H36.9917V45.8234L47.404 36.1999V7.48465C47.404 6.22219 47.8774 5.11762 48.5086 4.17081L48.5118 4.17102ZM52.7725 4.17102C51.9835 4.17102 51.0366 4.64444 50.4054 5.11784C49.932 5.74905 49.4586 6.53805 49.4586 7.48486V19.6329H56.0837V7.48486C56.0837 6.53805 55.7681 5.749 55.1369 5.11784C54.5057 4.64442 53.7167 4.17102 52.7699 4.17102H52.7725ZM10.1762 16.4772C9.54502 16.4772 9.0716 16.0038 9.0716 15.3726C9.0716 14.8992 9.54501 14.4258 10.1762 14.4258H29.2652C29.8964 14.4258 30.3698 14.8992 30.3698 15.3726C30.3698 16.0038 29.8964 16.4772 29.2652 16.4772H10.1762ZM9.54502 23.2601C8.9138 23.2601 8.59821 22.9445 8.59821 22.3133C8.59821 21.6821 8.91382 21.2086 9.54502 21.2086H16.6434C17.2746 21.2086 17.748 21.682 17.748 22.3133C17.748 22.9445 17.2746 23.2601 16.6434 23.2601H9.54502ZM21.2199 23.2601C20.5887 23.2601 20.1153 22.9445 20.1153 22.3133C20.1153 21.6821 20.5887 21.2086 21.2199 21.2086H41.5715C42.2027 21.2086 42.6761 21.682 42.6761 22.3133C42.6761 22.9445 42.2027 23.2601 41.5715 23.2601H21.2199ZM9.54502 30.5166C8.9138 30.5166 8.59821 30.201 8.59821 29.5698C8.59821 28.9386 8.91382 28.4651 9.54502 28.4651H32.8949C33.5261 28.4651 33.9995 28.9386 33.9995 29.5698C33.9995 30.201 33.5261 30.5166 32.8949 30.5166H9.54502ZM38.5731 30.5166C37.9419 30.5166 37.4685 30.201 37.4685 29.5698C37.4685 28.9386 37.9419 28.4651 38.5731 28.4651H41.5714C42.2026 28.4651 42.676 28.9386 42.676 29.5698C42.676 30.201 42.2026 30.5166 41.5714 30.5166H38.5731ZM9.54502 37.7731C8.9138 37.7731 8.59821 37.4575 8.59821 36.8263C8.59821 36.1951 8.91382 35.7217 9.54502 35.7217H22.9557C23.5869 35.7217 24.0603 36.1951 24.0603 36.8263C24.0603 37.4575 23.5869 37.7731 22.9557 37.7731H9.54502ZM29.2652 37.7731C28.634 37.7731 28.1606 37.4575 28.1606 36.8263C28.1606 36.1951 28.634 35.7217 29.2652 35.7217H41.5715C42.2027 35.7217 42.6761 36.1951 42.6761 36.8263C42.6761 37.4575 42.2027 37.7731 41.5715 37.7731H29.2652ZM9.54502 45.0296C8.9138 45.0296 8.59821 44.714 8.59821 44.0828C8.59821 43.4516 8.91382 42.9782 9.54502 42.9782H30.3697C30.8431 42.9782 31.3165 43.4516 31.3165 44.0828C31.3165 44.714 30.8431 45.0296 30.3697 45.0296H9.54502ZM9.54502 52.2861C8.9138 52.2861 8.59821 51.9705 8.59821 51.3393C8.59821 50.7081 8.91382 50.2347 9.54502 50.2347H25.6383C26.1118 50.2347 26.5852 50.7081 26.5852 51.3393C26.5852 51.9705 26.1117 52.2861 25.6383 52.2861H9.54502ZM57.0328 34.6173L54.8235 32.2503L39.204 46.6079L40.1508 47.7125L41.4133 48.975L57.0328 34.6173ZM36.3656 51.9705L39.6795 50.2346L38.7327 49.13L37.9437 48.1832L35.7344 51.3393L36.3656 51.9705ZM64.2914 23.5709L56.4036 30.8274L58.6128 33.1945L66.3425 25.938C66.5003 25.938 66.5003 25.7802 66.5003 25.6224V25.3067L64.9222 23.5709C64.7644 23.5709 64.6066 23.4131 64.6066 23.4131C64.4488 23.4131 64.2914 23.5709 64.2914 23.5709Z" fill="#212121"/>
</g>
<defs>
<clipPath id="clip0_11_360">
<rect width="68.4706" height="68.4706" fill="white" transform="translate(0.234375 0.541016)"/>
</clipPath>
</defs>
</svg>
