<svg width="40" height="40" viewBox="0 0 40 40" fill="none" xmlns="http://www.w3.org/2000/svg">
<g clip-path="url(#clip0_1_1322)">
<path d="M20 40C31.0457 40 40 31.0457 40 20C40 8.95431 31.0457 0 20 0C8.95431 0 0 8.95431 0 20C0 31.0457 8.95431 40 20 40Z" fill="black"/>
<path d="M30.712 17.1C30.712 14.4461 28.5643 12.2983 25.9104 12.2983H13.6259C10.972 12.2983 8.82422 14.4461 8.82422 17.1V22.8182C8.82422 25.4721 10.972 27.6198 13.6259 27.6198H25.9104C28.5643 27.6198 30.712 25.4721 30.712 22.8182V17.1ZM23.4891 20.3832L17.9761 23.1055C17.7572 23.2286 17.0322 23.0644 17.0322 22.8182V17.2231C17.0322 16.9769 17.7709 16.8127 17.9897 16.9358L23.2565 19.8086C23.4754 19.9454 23.7079 20.26 23.4891 20.3832Z" fill="white"/>
</g>
<defs>
<clipPath id="clip0_1_1322">
<rect width="40" height="40" fill="white"/>
</clipPath>
</defs>
</svg>
